<svg xmlns="http://www.w3.org/2000/svg" xml:space="preserve" width="1500" height="1500" data-id="lg_Q3XKClsVxVcUy5Uh5S" data-version="1" viewBox="0 0 1500 1500"><path fill="#fff" stroke="transparent" d="M0 0h1500v1500H0z"/><g data-padding="20"><g transform="translate(-571.429 -585.013)scale(1.72194)"><rect width="560" height="134.47" x="86.907" y="307.751" fill="none" rx="0" ry="0" transform="translate(400.5 400.31)"/><path fill="#444" d="M521.427 726.406h24.76q23.68 0 32.96 8.39t9.28 23.62q0 10.48-3.69 17.79-3.69 7.32-12.97 11.43-9.28 4.1-25.58 4.1h-24.76v20.95h-29.27q.95-23.09.95-43.2t-.95-43.2h29.27Zm0 42.37h16.43q9.87 0 14.81-.78 4.94-.77 6.9-2.79 1.97-2.03 1.97-5.95 0-3.93-1.85-5.89-1.84-1.97-6.78-2.68-4.94-.72-15.05-.72h-16.43Zm172.09-13.69q0 10.35-5.06 17.49t-17.31 10.36q1.42 1.9 2.02 2.97l19.28 26.78h-32.37q-5.24-9.76-16.54-27.61h-17.5v27.61h-28.08q.95-23.09.95-43.2t-.95-43.2h28.08v.12h24.4q24.04 0 33.56 7.74 9.52 7.73 9.52 20.94m-51.41-5.83h-16.07v13.57h16.07q10.11 0 15.29-.66 5.18-.65 7.2-2.08t2.02-4.17q0-2.61-1.9-4.04t-7.14-2.02q-5.24-.6-15.47-.6m60.92 53.19q4.04-6.07 6.72-11.3 2.68-5.24 5.18-12.14 8.45 4.88 19.63 7.62 11.19 2.73 20.83 2.73 9.88 0 13.92-1.72 4.05-1.73 4.05-3.75 0-7.26-22.14-7.26-24.27 0-35.22-5.06-10.95-5.05-10.95-16.36 0-16.06 13.33-23.68t34.63-7.62q12.37 0 25.4 3.16 13.04 3.15 23.51 8.62-3.45 7.86-7.26 19.16-.72 2.38-1.19 3.57-6.07-4.88-18.33-8.15-12.25-3.27-21.66-3.27-11.3 0-15.23 1.49-3.92 1.48-3.92 4.34t5.41 4.58q5.41 1.73 15.65 1.73 25.23 0 36.65 5.77t11.42 17.67q0 16.66-12.13 23.98-12.14 7.32-36.78 7.32-13.2 0-26.89-2.92-13.68-2.91-24.63-8.51m178.75-76.16h32.36l-2.26 3.45q-12.73 19.76-21.83 34.93-9.11 15.17-15.18 27.91v20.11h-31.05v-22.14q-4.41-8.92-10.36-18.38t-16.9-26q-8.56-12.62-13.09-19.88h33.32q3.57 7.26 11.67 21.54 8.09 14.52 11.06 20.47 4.17-8.69 11.19-21.3 8.21-14.76 11.07-20.71m107.8 0h42.13l9.28 86.4h-30.82l-1.91-61.64-11.9 61.64h-31.17l-12.14-61.17-1.79 61.17h-30.82l9.28-86.4h40.46l10.36 56.29Z"/></g><path fill="transparent" stroke="transparent" stroke-width="1.786" d="M250 630.357h1000v239.286H250z"/></g></svg>